<svg width="15" height="13" viewBox="0 0 15 13" fill="none" xmlns="http://www.w3.org/2000/svg">
<path d="M2.16732 1.66732H4.16732L5.50065 0.333984H9.50065L10.834 1.66732H12.834C13.1876 1.66732 13.5267 1.80779 13.7768 2.05784C14.0268 2.30789 14.1673 2.64703 14.1673 3.00065V11.0007C14.1673 11.3543 14.0268 11.6934 13.7768 11.9435C13.5267 12.1935 13.1876 12.334 12.834 12.334H2.16732C1.8137 12.334 1.47456 12.1935 1.22451 11.9435C0.97446 11.6934 0.833984 11.3543 0.833984 11.0007V3.00065C0.833984 2.64703 0.97446 2.30789 1.22451 2.05784C1.47456 1.80779 1.8137 1.66732 2.16732 1.66732ZM7.50065 3.66732C6.6166 3.66732 5.76875 4.01851 5.14363 4.64363C4.51851 5.26875 4.16732 6.1166 4.16732 7.00065C4.16732 7.88471 4.51851 8.73255 5.14363 9.35767C5.76875 9.98279 6.6166 10.334 7.50065 10.334C8.38471 10.334 9.23255 9.98279 9.85767 9.35767C10.4828 8.73255 10.834 7.88471 10.834 7.00065C10.834 6.1166 10.4828 5.26875 9.85767 4.64363C9.23255 4.01851 8.38471 3.66732 7.50065 3.66732ZM7.50065 5.00065C8.03108 5.00065 8.53979 5.21136 8.91486 5.58644C9.28994 5.96151 9.50065 6.47022 9.50065 7.00065C9.50065 7.53108 9.28994 8.03979 8.91486 8.41487C8.53979 8.78994 8.03108 9.00065 7.50065 9.00065C6.97022 9.00065 6.46151 8.78994 6.08644 8.41487C5.71136 8.03979 5.50065 7.53108 5.50065 7.00065C5.50065 6.47022 5.71136 5.96151 6.08644 5.58644C6.46151 5.21136 6.97022 5.00065 7.50065 5.00065Z" fill="#80808E"/>
</svg>
